<svg id="Layer_1" data-name="Layer 1" xmlns="http://www.w3.org/2000/svg" viewBox="0 0 451.5 451.5"><defs><style>.cls-1{fill:#1b8436;}.cls-2{fill:#f0ecd7;}</style></defs><rect class="cls-1" width="451.5" height="451.5" rx="33.86"/><path class="cls-2" d="M506,252.28q-10-6-29.35-11.78a132.86,132.86,0,0,0-38.15-5.8q-39.54,0-78.69,21.57A152.3,152.3,0,0,0,322.91,284L322,285V220.7q0-14.77-4-22.37-4.78-10.38-26.36-11.18h-70.3q-12,0-19.17,3.59c-3.2,1.6-5.39,4.54-6.59,8.79s-1.8,9.93-1.8,17,.53,12.65,1.6,16.77a14.92,14.92,0,0,0,6.79,9.39q5.19,3.21,17.57,3.2h31.56V289.4q-17.58,7.2-39.54,7.19-30.36,0-54.33-24.16t-24-58.72q0-34.54,23.56-55.92T211,136.42q23.16,0,39.94,11t24.37,11q12.76,0,28.35-21.17,9.19-12.78,9.19-22.57T302.06,96.88a163.64,163.64,0,0,0-41.2-22.63h-99q-29.59,10.52-54.31,34a141.69,141.69,0,0,0-33.29,47.17V274.29a152.82,152.82,0,0,0,32.49,48.47q43.94,44.92,103.45,44.93,48.09,0,78.94-17.85A162.41,162.41,0,0,0,286,382.49q0,31.15,10.58,57.72t27,43.54a164.71,164.71,0,0,0,36.94,28.76,175,175,0,0,0,28.48,13.24h95.78q14.88-4.93,20.34-8.25,6.58-4,13.78-8.39c1.18-.72,2.32-1.47,3.43-2.24a33.75,33.75,0,0,0,3.49-15v-32.5q-13.1-19-24.5-19-5.6,0-19.17,8l-7.19,5.19q-4.8,3.21-15.78,6.39a82.93,82.93,0,0,1-23.36,3.2q-26.37,0-50.73-17.58-12.39-9.18-20.37-25.16t-8-36.15q0-20.16,8-36.15t20-24.76q25.15-18,51.13-18,27.94,0,44.73,13.58,13.18,8.79,20.37,8.79,11.14,0,24.9-17.51V264.33q-3.84-2.61-10.12-6.46Z" transform="translate(-74.25 -74.25)"/><path class="cls-2" d="M525.75,133.41c-32.93-4.3-39.88-13.91-43-59.16h-3c-3.49,50.5-11.73,56.62-55.56,60.49a.76.76,0,0,0,0,1.52c47.24,4.18,53.14,10.94,56.3,73.09a.76.76,0,0,0,1.52,0c2.85-56.15,7.95-67.09,43.74-71.76Z" transform="translate(-74.25 -74.25)"/><path class="cls-2" d="M458.53,373c-32.11,2.84-36.12,7.44-38.27,49.68a.52.52,0,0,1-1,0c-2.14-42.24-6.15-46.84-38.26-49.68a.51.51,0,0,1,0-1c32.11-2.84,36.12-7.44,38.26-49.68a.52.52,0,0,1,1,0c2.15,42.24,6.16,46.84,38.27,49.68A.51.51,0,0,1,458.53,373Z" transform="translate(-74.25 -74.25)"/><path class="cls-2" d="M215.09,436.51c-62-5.48-69.7-14.36-73.85-95.88a1,1,0,0,0-2,0c-3.93,77.47-11.12,89.33-65,95v3.68c51.81,5.48,60.45,16.67,64.53,86.41h2.93c4.31-73.53,13.68-82,73.38-87.26A1,1,0,0,0,215.09,436.51Z" transform="translate(-74.25 -74.25)"/></svg>