<svg id="Layer_1" data-name="Layer 1" xmlns="http://www.w3.org/2000/svg" viewBox="0 0 486.6 149.7"><defs><style>.cls-1{fill:#1b8436;}.cls-2{fill:#f0ecd7;}</style></defs><rect class="cls-1" width="149.7" height="149.7" rx="10.2"/><path class="cls-2" d="M178.17,378.92a50.41,50.41,0,0,0-22.38-5.83,53.57,53.57,0,0,0-26.09,7.15,50.31,50.31,0,0,0-12.25,9.2l-.29.31v-21.3a16.42,16.42,0,0,0-1.33-7.42q-1.59-3.45-8.74-3.71H83.78a14.4,14.4,0,0,0-6.36,1.19,4.38,4.38,0,0,0-2.18,2.92,21.3,21.3,0,0,0-.6,5.62,23.36,23.36,0,0,0,.53,5.57,5,5,0,0,0,2.25,3.11q1.72,1.06,5.83,1.06h9.67a.79.79,0,0,1,.79.8v13.09a.81.81,0,0,1-.5.75,34.79,34.79,0,0,1-12.61,2.18q-10.06,0-18-8a26.61,26.61,0,0,1-8-19.47q0-11.46,7.82-18.54a25.84,25.84,0,0,1,17.88-7.09,23.69,23.69,0,0,1,13.24,3.64q5.57,3.64,8.08,3.65,4.25,0,9.4-7c2-2.83,3-5.32,3-7.49s-1.19-4.12-3.58-5.89A54,54,0,0,0,97,319.94a.71.71,0,0,0-.29-.05H64.19a.9.9,0,0,0-.28,0A50.6,50.6,0,0,0,46,331.16a47,47,0,0,0-11,15.49A.71.71,0,0,0,35,347v39.08a.87.87,0,0,0,.06.32,50.83,50.83,0,0,0,10.71,15.91q14.56,14.91,34.3,14.9,14.85,0,24.74-5.12a.79.79,0,0,1,1.13.85,55.41,55.41,0,0,0-.74,9.18,51.22,51.22,0,0,0,3.51,19.14,43.87,43.87,0,0,0,8.94,14.43,54.33,54.33,0,0,0,12.25,9.54,56.79,56.79,0,0,0,9.31,4.34.62.62,0,0,0,.27,0H171a.73.73,0,0,0,.25,0,37.05,37.05,0,0,0,6.62-2.69l4.57-2.79c.33-.19.64-.4,1-.61a.81.81,0,0,0,.28-.33,11.18,11.18,0,0,0,1.06-4.77V447.84a.83.83,0,0,0-.14-.46c-2.84-4.05-5.5-6.09-8-6.09q-1.85,0-6.32,2.63l-.07.05-2.35,1.7a20.19,20.19,0,0,1-5.23,2.11,27.49,27.49,0,0,1-7.75,1.06A28.39,28.39,0,0,1,138,443a22.74,22.74,0,0,1-6.75-8.35,28.43,28.43,0,0,1,0-24,22.19,22.19,0,0,1,6.62-8.21q8.34-6,17-6,9.25,0,14.81,4.48l.05,0q4.35,2.9,6.73,2.9,3.62,0,8.08-5.59a.82.82,0,0,0,.17-.5V383.34a.78.78,0,0,0-.34-.66c-.8-.54-1.8-1.17-3-1.91Z" transform="translate(-35 -319.89)"/><path class="cls-2" d="M184.7,340.19a.8.8,0,0,0-.69-.78c-10.32-1.48-12.55-4.84-13.56-19.52h-1c-1,14.68-3.24,18-13.56,19.52a.79.79,0,0,0,0,1.57c9.44,1.35,12.11,4.27,13.28,16a.79.79,0,0,0,1.58,0c1.16-11.7,3.84-14.62,13.27-16a.79.79,0,0,0,.69-.79Z" transform="translate(-35 -319.89)"/><path class="cls-2" d="M157.65,419.56c-4.71.92-6.47,2.85-7.31,8.55a.79.79,0,0,1-1.57,0c-.83-5.7-2.6-7.63-7.31-8.55a.79.79,0,0,1,0-1.56c4.71-.93,6.48-2.86,7.31-8.56a.79.79,0,0,1,1.57,0c.84,5.7,2.6,7.63,7.31,8.56A.79.79,0,0,1,157.65,419.56Z" transform="translate(-35 -319.89)"/><path class="cls-2" d="M77.18,439.54c-14.65-1.76-18-5.49-19.5-23.94a.8.8,0,0,0-1.59,0C54.58,434.7,51,438,35,439.72v1.22c17.18,1.82,20,5.53,21.4,28.65h1c1.31-22.39,4-26.58,19.81-28.47A.8.8,0,0,0,77.18,439.54Z" transform="translate(-35 -319.89)"/><path class="cls-1" d="M253.76,389.86h11.38c2.32.09,3.75.69,4.26,1.81a8,8,0,0,1,.65,3.62v14.22a5.63,5.63,0,0,1-1.81,3.94q-5.43,5.63-16.29,5.62a22.65,22.65,0,0,1-16.74-7.27,24.18,24.18,0,0,1-7.11-17.55,22.73,22.73,0,0,1,7.24-17.16,23.92,23.92,0,0,1,31.48-1.84,3.62,3.62,0,0,1,1.74,2.88,6.56,6.56,0,0,1-1.48,3.65c-1.68,2.28-3.21,3.43-4.59,3.43-.82,0-2.13-.6-3.94-1.78a11.52,11.52,0,0,0-6.47-1.78,12.59,12.59,0,0,0-8.72,3.46,11.61,11.61,0,0,0-3.82,9.05,13,13,0,0,0,3.88,9.5,12.08,12.08,0,0,0,8.79,3.91,16.89,16.89,0,0,0,6.4-1.16v-7.05H253.5a5.66,5.66,0,0,1-2.84-.52,2.4,2.4,0,0,1-1.1-1.52,11.34,11.34,0,0,1-.26-2.71,10.69,10.69,0,0,1,.29-2.75,2.14,2.14,0,0,1,1.07-1.42A7,7,0,0,1,253.76,389.86Z" transform="translate(-35 -319.89)"/><path class="cls-1" d="M279.68,388.63a17.74,17.74,0,0,1,12.41-5,17.54,17.54,0,0,1,12.34,5A17.81,17.81,0,0,1,307,410.9a17.44,17.44,0,0,1-6.75,6.14,18.4,18.4,0,0,1-8.25,2,17.61,17.61,0,0,1-8.27-2.1A18.32,18.32,0,0,1,277,410.7a16.27,16.27,0,0,1-2.75-9.27A16.71,16.71,0,0,1,279.68,388.63Zm8.08,17.42a6.84,6.84,0,0,0,4.2,1.58,7.06,7.06,0,0,0,4.27-1.61,6.5,6.5,0,0,0,.13-9.5A6.91,6.91,0,0,0,292,395a6.75,6.75,0,0,0-4.33,1.61,5.76,5.76,0,0,0-2,4.75A5.58,5.58,0,0,0,287.76,406.05Z" transform="translate(-35 -319.89)"/><path class="cls-1" d="M343.6,406l1.17-.84a7.71,7.71,0,0,1,3.1-1.3c1.33,0,2.78,1.21,4.33,3.62a7.51,7.51,0,0,1,1.42,3.62,3.16,3.16,0,0,1-.87,2.27,10,10,0,0,1-2,1.61c-.77.48-1.52.93-2.23,1.36a23.48,23.48,0,0,1-4.36,1.68,21.22,21.22,0,0,1-6.37,1,25.18,25.18,0,0,1-6.2-.8,27.73,27.73,0,0,1-12.44-7.37,21.32,21.32,0,0,1-4.37-7,25,25,0,0,1-1.71-9.34,23.89,23.89,0,0,1,1.68-9.14,20.85,20.85,0,0,1,4.3-6.79,24.54,24.54,0,0,1,6-4.49,26.12,26.12,0,0,1,12.73-3.49,21.26,21.26,0,0,1,6.17.94,21.61,21.61,0,0,1,4.75,1.9l1.56.91c.77.47,1.37.86,1.8,1.16a3.94,3.94,0,0,1,1.69,3.07,6.23,6.23,0,0,1-1.36,3.59c-1.68,2.32-3.19,3.49-4.53,3.49a6.9,6.9,0,0,1-3.29-1.42,11.15,11.15,0,0,0-7.24-2.2A14.15,14.15,0,0,0,329,385a10.81,10.81,0,0,0-3.23,4,13.91,13.91,0,0,0,0,11.7,11.05,11.05,0,0,0,3.3,4.07,13.82,13.82,0,0,0,8.21,2.85,13.33,13.33,0,0,0,3.78-.52A10,10,0,0,0,343.6,406Z" transform="translate(-35 -319.89)"/><path class="cls-1" d="M381,384.75a4.36,4.36,0,0,1,2,1.33,4.54,4.54,0,0,1,.81,3,10.24,10.24,0,0,1-1.23,4.53,3.84,3.84,0,0,1-3.56,2.45,5.08,5.08,0,0,1-2.22-.51A6.46,6.46,0,0,0,374,395a5.08,5.08,0,0,0-3.26,1.23,3.71,3.71,0,0,0-1.52,3V412.8a17.4,17.4,0,0,1-.1,2.23,5.19,5.19,0,0,1-.61,1.72q-1,1.68-5,1.68a7.13,7.13,0,0,1-4.46-1.1,3.91,3.91,0,0,1-1.17-2.78V390a19.63,19.63,0,0,1,.1-2.23,5.41,5.41,0,0,1,.55-1.65q.9-1.74,5-1.74c2.59,0,4.2.49,4.85,1.48a3.75,3.75,0,0,1,.71,2.13,11.56,11.56,0,0,1,.94-1.09,11.82,11.82,0,0,1,2.62-1.75,7.57,7.57,0,0,1,3.52-1.1,18,18,0,0,1,2.55.16A15.35,15.35,0,0,1,381,384.75Z" transform="translate(-35 -319.89)"/><path class="cls-1" d="M418.32,397.32c0,2.65-.66,4.62-2,5.89a6.16,6.16,0,0,1-4.37,1.9H396.66a3.56,3.56,0,0,0,2.14,3,8.45,8.45,0,0,0,4.26,1.23,17.68,17.68,0,0,0,5.88-.78l.72-.26a6.54,6.54,0,0,1,2.58-.71c1.38,0,2.56,1,3.56,2.91a7.18,7.18,0,0,1,.84,3q0,5.76-13.77,5.76a20.76,20.76,0,0,1-8.5-1.65,14.45,14.45,0,0,1-5.79-4.36,18.61,18.61,0,0,1-4.07-11.7q0-8.15,5.27-13a18.63,18.63,0,0,1,13.15-4.88q9,0,13.19,6.34A13.16,13.16,0,0,1,418.32,397.32Zm-13.64,1.91c1.64,0,2.45-.69,2.45-2.07a2.9,2.9,0,0,0-1.13-2.39,5.07,5.07,0,0,0-3.23-.9,6.54,6.54,0,0,0-4.17,1.71,4.79,4.79,0,0,0-2.06,3.65Z" transform="translate(-35 -319.89)"/><path class="cls-1" d="M444.62,388q.39-3.62,5.11-3.61a13.41,13.41,0,0,1,3.75.38,2.72,2.72,0,0,1,1.71,1.36,5.56,5.56,0,0,1,.58,1.71,17.61,17.61,0,0,1,.1,2.23v22.63a17.33,17.33,0,0,1-.1,2.22,5.93,5.93,0,0,1-.55,1.72q-.9,1.68-4.43,1.68c-2.34,0-3.92-.29-4.71-.87a3.51,3.51,0,0,1-1.39-2.56q-2.4,3.44-8,3.43t-10.37-5.11a17,17,0,0,1,0-23.69q4.81-5.07,10.57-5.07a10.06,10.06,0,0,1,4,.78,7.16,7.16,0,0,1,3.68,2.77Zm-11.76,13.45a5.35,5.35,0,0,0,1.68,3.84,5.47,5.47,0,0,0,4.07,1.72,5.15,5.15,0,0,0,4-1.75,5.6,5.6,0,0,0,1.58-3.84,6,6,0,0,0-1.52-3.91,5,5,0,0,0-4.07-1.81,5.24,5.24,0,0,0-4.14,1.81A5.88,5.88,0,0,0,432.86,401.43Z" transform="translate(-35 -319.89)"/><path class="cls-1" d="M480.82,395.81l-4.2-.26v8.92a4.53,4.53,0,0,0,.54,2.52,2.41,2.41,0,0,0,2.07.77,22,22,0,0,1,2.33.1,4.54,4.54,0,0,1,1.71.61c1,.56,1.49,2,1.49,4.33q0,4.08-1.81,5a6,6,0,0,1-1.71.55,19.06,19.06,0,0,1-2.17.1q-6.72,0-10.21-3t-3.49-10.28v-9.56a16.94,16.94,0,0,1-2.65.19,2.94,2.94,0,0,1-2.36-1.1,5.78,5.78,0,0,1-.94-3.75,15.94,15.94,0,0,1,.33-3.84,3.43,3.43,0,0,1,.9-1.72,4,4,0,0,1,2.59-.84l2.13.26V378.1a16.67,16.67,0,0,1,.1-2.2,3.86,3.86,0,0,1,.61-1.55q.84-1.62,5-1.62,4.4,0,5.23,2.39a11.87,11.87,0,0,1,.33,3.3v6.33c1.89-.17,3.32-.26,4.29-.26a19.27,19.27,0,0,1,2.2.1,5.11,5.11,0,0,1,1.71.62q1.68.84,1.68,5t-1.74,5a6.31,6.31,0,0,1-1.71.55A19.76,19.76,0,0,1,480.82,395.81Z" transform="translate(-35 -319.89)"/><path class="cls-1" d="M521.6,397.32c0,2.65-.66,4.62-2,5.89a6.16,6.16,0,0,1-4.36,1.9H500a3.54,3.54,0,0,0,2.13,3,8.46,8.46,0,0,0,4.27,1.23,17.72,17.72,0,0,0,5.88-.78l.71-.26a6.54,6.54,0,0,1,2.58-.71q2.07,0,3.56,2.91a7.18,7.18,0,0,1,.84,3q0,5.76-13.77,5.76a20.76,20.76,0,0,1-8.5-1.65,14.41,14.41,0,0,1-5.78-4.36,18.55,18.55,0,0,1-4.07-11.7q0-8.15,5.26-13a18.65,18.65,0,0,1,13.16-4.88q9,0,13.18,6.34A13.08,13.08,0,0,1,521.6,397.32ZM508,399.23q2.46,0,2.46-2.07a2.93,2.93,0,0,0-1.13-2.39,5.09,5.09,0,0,0-3.23-.9,6.5,6.5,0,0,0-4.17,1.71,4.8,4.8,0,0,0-2.07,3.65Z" transform="translate(-35 -319.89)"/></svg>